# xmcd
#
# Track frame offsets:
#	150
#	15323
#	51216
#	67556
#	80513
#	92917
#	105742
#	125403
#	142382
#	151168
#	168615
#	183788
#	199887
#	213259
#	229313
#	242037
#	254667
#	269136
#	283190
#	295400
#
# Disc length: 4097 seconds
#
# Revision: 1
# Processed by: cddbd v1.4PL0 Copyright (c) Steve Scherf et al.
# Submitted via: audiograbber 1.81.02
#
DISCID=300fff14
DTITLE=De Randfichten - Randfichten
DYEAR=2003
DGENRE=
TTITLE0=Halli Hallo
TTITLE1=Dr Holzmichel
TTITLE2=Grussvater
TTITLE3=Rietz, raatz
TTITLE4=Aldi Aldi
TTITLE5=Spackfettbem
TTITLE6=Heut' feiern wir bis in den Mo
TTITLE7=Steig ei, wir fahrn in de Tschechei
TTITLE8=Schwammelied
TTITLE9=Susi
TTITLE10=Hier spielt die Musi
TTITLE11=Dre'h dich Peremett
TTITLE12=Do pfeift dr Fuchs
TTITLE13=Am Tog drnooch
TTITLE14=Schneeweiﬂer Winter
TTITLE15=Kenn Staapilz find' ich net
TTITLE16=Ich w‰r su gern e Volksmusikstar
TTITLE17=Hamweh
TTITLE18=Wenn's de Kliess zerruppt
TTITLE19=Bis bald uhr Leit
EXTD=
EXTT0=
EXTT1=
EXTT2=
EXTT3=
EXTT4=
EXTT5=
EXTT6=
EXTT7=
EXTT8=
EXTT9=
EXTT10=
EXTT11=
EXTT12=
EXTT13=
EXTT14=
EXTT15=
EXTT16=
EXTT17=
EXTT18=
EXTT19=
PLAYORDER=
